<?xml version="1.0" standalone="no"?>
<!DOCTYPE svg PUBLIC "-//W3C//DTD SVG 1.1//EN" "http://www.w3.org/Graphics/SVG/1.1/DTD/svg11.dtd">
<svg xmlns="http://www.w3.org/2000/svg" version="1.1" width="110px" height="110px">
  <g>
    <circle cx="50" cy="0" r="5" transform="translate(5 5)"/>
    <circle cx="75" cy="6.6987298" r="5" transform="translate(5 5)"/>
    <circle cx="93.3012702" cy="25" r="5" transform="translate(5 5)"/>
    <circle cx="100" cy="50" r="5" transform="translate(5 5)"/>
    <circle cx="93.3012702" cy="75" r="5" transform="translate(5 5)"/>
    <circle cx="75" cy="93.3012702" r="5" transform="translate(5 5)"/>
    <circle cx="50" cy="100" r="5" transform="translate(5 5)"/>
    <circle cx="25" cy="93.3012702" r="5" transform="translate(5 5)"/>
    <circle cx="6.6987298" cy="75" r="5" transform="translate(5 5)"/>
    <circle cx="0" cy="50" r="5" transform="translate(5 5)"/>
    <circle cx="6.6987298" cy="25" r="5" transform="translate(5 5)"/>
    <circle cx="25" cy="6.6987298" r="5" transform="translate(5 5)"/>

    <animateTransform attributeType="xml" attributeName="transform" type="rotate" from="0 55 55" to="360 55 55" dur="3s" repeatCount="indefinite" />
  </g>
</svg>
